<?xml version="1.0" encoding="UTF-8" standalone="no"?>
<svg width="855px" height="861px" viewBox="0 0 855 861" version="1.1" xmlns="http://www.w3.org/2000/svg" xmlns:xlink="http://www.w3.org/1999/xlink">
    <!-- Generator: Sketch 3.8.1 (29687) - http://www.bohemiancoding.com/sketch -->
    <title>JS Melbourne V3</title>
    <desc>Created with Sketch.</desc>
    <defs></defs>
    <g id="Page-1" stroke="none" stroke-width="1" fill="none" fill-rule="evenodd">
        <g id="JS-Melbourne-V3" transform="translate(-73.000000, -61.000000)">
            <rect id="Rectangle-path" fill-opacity="0" fill="#FFFFFF" x="0" y="0" width="1000" height="1000"></rect>
            <polygon id="Shape" fill="#FFFFFF" points="77 143.95 222.53 68.43 501.34 228.71 783.55 68.5 921 148.64 921 642.29 789.01 719.58 650.85 639.57 650.24 480.18 506.28 558.02 366.28 474.94 367.94 638.03 222.4 719.58 77 638.03"></polygon>
            <path d="M785.53,61.81 L503.3,222.03 L224.6,61.81 L73.95,140 L73.95,640 L224.34,724.35 L374.95,640.03 L373.32,482.81 L508.12,562.81 L647.22,487.6 L647.81,641.5 L790.95,724.45 L927.95,644.24 L927.95,144.81 L785.53,61.81 Z M511.95,392.54 L917.95,156.89 L917.95,632.12 L511.95,392.54 Z M300.72,267.89 L247.22,116.39 L352.95,298.71 L300.72,267.89 Z M363.19,316.36 L377.95,341.88 L339.85,378.69 L305.95,282.55 L363.19,316.36 Z M287.32,259.98 L194.66,205.3 L225.43,84.71 L287.32,259.98 Z M292.5,274.65 L331.95,386.32 L313.78,403.86 L182.38,253.43 L192.09,215.43 L292.5,274.65 Z M335.6,396.65 L354.68,450.65 L320.36,411.35 L335.6,396.65 Z M179.38,265.2 L306.57,410.81 L265.77,450.19 L172.6,291.81 L179.38,265.2 Z M165.38,279.54 L110.74,186.64 L171.37,256.06 L165.38,279.54 Z M174.38,244.29 L103.48,163.1 L183.12,210.1 L174.38,244.29 Z M161.88,293.29 L142.15,370.64 L92.77,175.81 L161.88,293.29 Z M169.08,305.53 L258.36,457.34 L182.65,530.43 L147.29,390.93 L169.08,305.53 Z M174.35,538.42 L88.52,621.29 L142.12,411.21 L174.35,538.42 Z M177.18,549.59 L182.86,571.99 L110.41,613.99 L177.18,549.59 Z M185.47,541.59 L263.57,466.2 L289.41,510.14 L191.86,566.81 L185.47,541.59 Z M270.95,459.06 L313.12,418.35 L358.34,470.12 L298.04,505.12 L270.95,459.06 Z M343.48,389.06 L383.16,350.81 L428.7,429.33 L369.81,463.51 L343.48,389.06 Z M390.53,343.64 L397.68,336.74 L492.13,392.48 L437.31,424.3 L390.53,343.64 Z M385.36,334.73 L380.73,326.73 L388.73,331.46 L385.36,334.73 Z M370.49,309.09 L238.41,81.25 L495.16,228.81 L396.24,324.29 L370.49,309.09 Z M185.69,200 L89.46,143.21 L217.08,77.01 L185.69,200 Z M136.95,390.92 L83.95,598.73 L83.95,181.67 L136.95,390.92 Z M185.39,582.07 L217.6,709.16 L89.89,637.52 L185.39,582.07 Z M194.39,576.85 L294.49,518.81 L362.95,635.2 L228.33,710.69 L194.39,576.85 Z M303.12,513.74 L363.2,478.87 L364.58,618.23 L303.12,513.74 Z M433.69,437.95 L494.83,543.37 L374.83,472.14 L433.69,437.95 Z M442.34,432.95 L502.02,398.31 L640.35,479.94 L510.35,550.24 L442.34,432.95 Z M913.41,147.95 L502.08,386.71 L405.18,329.53 L506.18,231.99 L785.51,73.35 L913.41,147.95 Z M790.95,712.87 L657.66,635.81 L657.15,489.81 L913.51,641.11 L790.95,712.87 Z" id="Shape" fill="#000000"></path>
            <path d="M918.16,761.5 C910.84,715.87 881.09,677.56 792.97,641.82 C762.36,627.75 728.24,617.68 718.07,594.48 C714.46,580.98 713.98,573.38 716.26,565.2 C722.82,538.68 754.47,530.41 779.57,538.01 C795.73,543.43 811.03,555.88 820.25,575.75 C863.41,547.8 863.31,547.99 893.44,528.75 C882.44,511.64 876.52,503.75 869.3,496.43 C843.3,467.43 807.99,452.51 751.43,453.65 C741.64,454.89 731.75,456.22 721.96,457.45 C693.73,464.58 666.83,479.45 651.05,499.28 C603.71,553 617.21,647.05 674.81,685.74 C731.56,728.33 814.92,738.02 825.57,777.85 C835.93,826.61 789.73,842.39 743.82,836.79 C709.98,829.79 691.16,812.55 670.82,781.28 C633.37,802.95 633.37,802.95 594.82,825.1 C603.95,845.1 613.55,854.1 628.82,871.39 C701.33,944.87 882.6,941.25 915.11,830 C916.44,826.24 925.19,800.76 918.16,761.5 L918.16,761.5 Z" id="S" fill="#000000"></path>
            <path d="M543.63,459.6 L450.1,459.6 C450.1,540.4 449.72,620.6 449.72,701.43 C449.72,752.86 452.38,800 444.02,814.43 C430.33,842.85 394.88,839.33 378.72,833.82 C362.28,825.74 353.91,814.24 344.21,797.98 C341.55,793.32 339.55,789.71 338.89,789.42 C313.51,804.913333 288.176667,820.44 262.89,836 C275.53,862 294.16,884.48 318.02,899.12 C353.67,920.51 401.58,927.07 451.67,915.56 C484.27,906.05 512.41,886.38 527.15,856.43 C548.44,817.17 543.88,769.64 543.69,717.08 C544.11,631.37 543.63,545.63 543.63,459.6 L543.63,459.6 Z" id="J" fill="#000000"></path>
        </g>
    </g>
</svg>